Coordinates
version=1
nRows=14
nColumns=24
inDegrees=yes

Units are S.I. units (second, meters, Newtons, ...)
Angles are in degrees.

endheader
time	pelvis_tilt	pelvis_list	pelvis_rotation	pelvis_tx	pelvis_ty	pelvis_tz	hip_flexion_r	hip_adduction_r	hip_rotation_r	knee_angle_r	ankle_angle_r	subtalar_angle_r	mtp_angle_r	hip_flexion_l	hip_adduction_l	hip_rotation_l	knee_angle_l	ankle_angle_l	subtalar_angle_l	mtp_angle_l	lumbar_extension	lumbar_bending	lumbar_rotation
      1.14450000	     -6.21728435	      0.87472386	     -4.04977019	      0.22474689	      1.05828310	      0.27641713	     23.21749511	     -5.27252777	     -6.64148914	    -73.22053678	      1.38628846	     -7.17865965	      6.67505976	     20.51287158	     -0.30129152	      1.60477293	    -25.42077337	     14.83603162	      5.57209568	      0.72888525	     -1.13892084	     -3.15415081	      3.48192244
      1.14866667	     -6.22471401	      0.74466424	     -4.11725510	      0.23024751	      1.05979430	      0.27658596	     23.76657484	     -5.03360948	     -6.72867044	    -72.99612260	      1.63544703	     -6.88793173	      6.65427845	     19.91405740	     -0.46543110	      1.48591762	    -24.88350521	     14.82318706	      5.65621756	      0.73731300	     -1.15385913	     -3.02427614	      3.42667109
      1.15283333	     -6.20346498	      0.62770751	     -4.15561590	      0.23575892	      1.06130596	      0.27669223	     24.26340056	     -4.83175294	     -6.85295335	    -72.71076978	      1.92692555	     -6.52009376	      6.62889024	     19.28185466	     -0.60029416	      1.39432178	    -24.33206783	     14.85326156	      5.76642399	      0.75398288	     -1.18624206	     -2.90846460	      3.33687631
      1.15700000	     -6.19146001	      0.50573076	     -4.18666214	      0.24126022	      1.06276160	      0.27679291	     24.75380424	     -4.62111853	     -6.98273489	    -72.35951124	      2.19726613	     -6.18281319	      6.60977504	     18.66284735	     -0.73850822	      1.30795082	    -23.78162930	     14.84879096	      5.85857270	      0.77219571	     -1.21830089	     -2.78384141	      3.23888575
      1.16116667	     -6.19420067	      0.38053083	     -4.21190924	      0.24674922	      1.06414584	      0.27689391	     25.24469669	     -4.40352143	     -7.11614170	    -71.94487255	      2.44427546	     -5.87622831	      6.60592266	     18.06354777	     -0.87983023	      1.22302227	    -23.23335650	     14.81145961	      5.93746317	      0.78320305	     -1.23839503	     -2.65083435	      3.15826849
      1.16533333	     -6.17240137	      0.26640271	     -4.20763217	      0.25225508	      1.06550962	      0.27692663	     25.68714797	     -4.22170320	     -7.28567515	    -71.47484158	      2.72769165	     -5.52180502	      6.60339459	     17.43900165	     -0.99416783	      1.17370498	    -22.68051802	     14.82591373	      6.02201659	      0.80451842	     -1.27826952	     -2.52774858	      3.02109228
      1.16950000	     -6.15693340	      0.15023353	     -4.19522319	      0.25775060	      1.06682682	      0.27694652	     26.11911701	     -4.03666216	     -7.45847143	    -70.94092006	      2.98793319	     -5.21151876	      6.60582264	     16.82491250	     -1.10829910	      1.13351191	    -22.12746956	     14.80137211	      6.08751910	      0.82726367	     -1.31906646	     -2.40016667	      2.88385666
      1.17366667	     -6.15606343	      0.01278149	     -4.16973838	      0.26323147	      1.06806217	      0.27695092	     26.54485546	     -3.82918715	     -7.64562426	    -70.33960449	      3.22986773	     -4.93480672	      6.61330746	     16.23877296	     -1.24529677	      1.09988091	    -21.59532476	     14.77252610	      6.16268323	      0.84580845	     -1.34482757	     -2.24869287	      2.76280283
      1.17783333	     -6.14645706	     -0.11106226	     -4.13325614	      0.26872643	      1.06925933	      0.27692625	     26.94430507	     -3.64682042	     -7.84466476	    -69.68568575	      3.46780962	     -4.68543704	      6.62336974	     15.64527212	     -1.36372510	      1.06479150	    -21.06083980	     14.73181147	      6.23540058	      0.85972346	     -1.38105375	     -2.09652823	      2.64625712
      1.18200000	     -6.11961956	     -0.23189086	     -4.07763037	      0.27419690	      1.07040800	      0.27687185	     27.30952635	     -3.47764203	     -8.05600897	    -68.98330490	      3.71949828	     -4.42324519	      6.63739069	     15.04117283	     -1.47038156	      1.06540904	    -20.53449630	     14.72711017	      6.29637161	      0.87986268	     -1.44111130	     -1.97130189	      2.47209651
      1.18616667	     -6.10128686	     -0.33903776	     -4.01032468	      0.27966748	      1.07146341	      0.27677677	     27.67165075	     -3.33370143	     -8.27790362	    -68.23824647	      3.95789341	     -4.20019451	      6.65581955	     14.45156455	     -1.55775183	      1.08188334	    -20.01215164	     14.72853732	      6.34676178	      0.90986692	     -1.48783985	     -1.82922334	      2.26093405
      1.19033333	     -6.10164399	     -0.46167181	     -3.93715092	      0.28512194	      1.07243565	      0.27669770	     28.03272672	     -3.16602005	     -8.49878677	    -67.42829187	      4.18064192	     -4.02754876	      6.67039496	     13.89739263	     -1.66793752	      1.08570534	    -19.51631096	     14.69378000	      6.40412179	      0.92884991	     -1.51869726	     -1.69395788	      2.12509040
      1.19450000	     -6.09413121	     -0.56821303	     -3.84733728	      0.29058247	      1.07332594	      0.27655950	     28.37303456	     -3.03356288	     -8.73495733	    -66.58301819	      4.40428489	     -3.85934883	      6.69087513	     13.33765863	     -1.75116399	      1.12501485	    -19.02195552	     14.71193687	      6.45007453	      0.96052503	     -1.55614719	     -1.54795478	      1.89876196
      1.19866667	     -6.12024050	     -0.68617936	     -3.75693336	      0.29603008	      1.07410772	      0.27645132	     28.73050899	     -2.87791709	     -8.96223053	    -65.67781891	      4.61352970	     -3.74522335	      6.70402046	     12.83169787	     -1.85609490	      1.14125238	    -18.55951975	     14.68658107	      6.50903276	      0.97783545	     -1.55678922	     -1.41489103	      1.77156993
